REM MD5 47c067d4a388b91dc4d7c98e92700088
FILE "Play Fun 8-99 (Germany).bin" BINARY
  TRACK 01 MODE2/2352
    INDEX 01 00:00:00
  TRACK 02 AUDIO
    INDEX 00 59:01:37
    INDEX 01 59:03:37
  TRACK 03 AUDIO
    INDEX 00 61:59:61
    INDEX 01 62:01:61
  TRACK 04 AUDIO
    INDEX 00 64:58:10
    INDEX 01 65:00:10
  TRACK 05 AUDIO
    INDEX 00 66:20:64
    INDEX 01 66:22:64
REM LEADOUT 69:23:64
